HIERARCHY
ROOT Hips
{
	OFFSET 0.00000 0.00000 0.00000
	CHANNELS 6 Xposition Yposition Zposition Yrotation Zrotation Xrotation 
	JOINT Lumbar
	{
		OFFSET 0 0 0
		CHANNELS 3 Zrotation Xrotation Yrotation
		JOINT Neck
		{
			OFFSET 0.00 0.2701 0.00
			CHANNELS 3 Zrotation Xrotation Yrotation
			End Site
			{
				OFFSET 0.00 0.1379 0.00
			}
		}
		JOINT RightShoulder
		{
			OFFSET 0.0119 0.2289 0.1181
			CHANNELS 3 Zrotation Xrotation Yrotation
			JOINT RightElbow
			{
				OFFSET 0.00 -0.1475 0.00
				CHANNELS 2 Zrotation Yrotation
				JOINT RightWrist
				{
					OFFSET 0.00 -0.1605 0.00
					CHANNELS 2 Zrotation Xrotation
					End Site
					{
						OFFSET 0.0040 -0.1068 0.0006
					}
				}
			}
		}
		JOINT LeftShoulder
		{
			OFFSET 0.0119 0.2289 -0.1181
			CHANNELS 3 Zrotation Xrotation Yrotation
			JOINT LeftElbow
			{
				OFFSET 0.00 -0.1475 0.00
				CHANNELS 2 Zrotation Yrotation
				JOINT LeftWrist
				{
					OFFSET 0.00 -0.1605 0.00
					CHANNELS 2 Zrotation Xrotation
					End Site
					{
						OFFSET 0.0040 -0.1068 -0.0006
					}
				}
			}
		}
	}
	JOINT RightHip
	{
		OFFSET 0.0316 -0.0424 0.0458
		CHANNELS 3 Zrotation Xrotation Yrotation
		JOINT RightKnee
		{
			OFFSET 0.00 -0.2438 0.00
			CHANNELS 1 Zrotation
			JOINT RightAnkle
			{
				OFFSET 0.00 -0.2449 0.00
				CHANNELS 3 Zrotation Xrotation Yrotation
				End Site
				{
					OFFSET 0.1237 -0.0542 0.0051
				}
			}
		}
	}
	JOINT LeftHip
	{
		OFFSET 0.0316 -0.0424 -0.0458
		CHANNELS 3 Zrotation Xrotation Yrotation
		JOINT LeftKnee
		{
			OFFSET 0.00 -0.2438 0.00
			CHANNELS 1 Zrotation
			JOINT LeftAnkle
			{
				OFFSET 0.00 -0.2449 0.00
				CHANNELS 3 Zrotation Xrotation Yrotation
				End Site
				{
					OFFSET 0.1237 -0.0542 -0.0051
				}
			}
		}
	}
}
MOTION
Frames: 32
Frame Time: 0.02
-0.12228 -0.33717 -0.20222 11.98576 -31.13971 -15.89632 31.70922 4.92532 -8.69966 -4.51707 9.82057 -0.83079 -24.56859 -9.62204 -17.88436 59.23578 81.79487 -6.67046 -4.13549 -3.3212 30.37492 -16.74398 107.17223 -76.34586 -11.21485 1.73914 95.63696 -20.55049 29.99506 -125.00062 -5.31139 -2.25734 -1.72604 64.01059 14.91521 -3.73324 -125.18251 -21.89305 0.56494 1.41048
-0.12322 -0.34076 -0.19505 12.79543 -31.19438 -15.07783 31.14001 4.81846 -8.54686 -3.78501 9.59169 -0.83079 -23.44113 -10.43174 -18.13025 57.4132 81.60496 -6.61997 -3.9645 -0.88938 29.99224 -17.94153 106.75932 -76.31348 -11.40868 1.76352 96.82083 -20.43774 31.19594 -126.08341 -5.33518 -2.19093 -1.69293 64.85928 15.18234 -4.75143 -126.20089 -21.89933 0.50216 1.37092
-0.12406 -0.34469 -0.18745 13.56125 -31.31473 -14.22598 30.5913 4.71336 -8.31874 -2.95182 9.36435 -0.83079 -22.25248 -11.36588 -18.15707 55.68246 81.36911 -6.49241 -3.7554 1.43424 29.348 -18.94803 106.41568 -76.28446 -11.61342 1.78624 98.03563 -20.28773 32.57656 -127.57831 -5.35212 -2.1164 -1.65635 65.84238 15.46165 -5.86518 -127.25844 -21.91448 0.43145 1.32675
-0.12494 -0.34849 -0.18004 14.33923 -31.4033 -13.39288 30.02599 4.61321 -8.1241 -2.16218 9.14003 -0.83079 -21.08367 -12.23754 -18.29375 53.91908 81.15876 -6.41282 -3.55893 3.77513 28.80491 -20.02507 106.04118 -76.25709 -11.81574 1.81042 99.25581 -20.14873 33.86967 -128.88853 -5.37599 -2.04753 -1.62218 66.76026 15.74027 -6.95502 -128.29298 -21.92241 0.36598 1.28555
-0.12582 -0.35221 -0.17264 15.15696 -31.50012 -12.54051 29.49067 4.48637 -7.93213 -1.38002 8.89952 -0.83079 -19.94471 -13.13656 -18.38457 52.11895 80.92754 -6.27734 -3.37975 6.26626 28.33089 -21.17617 105.66186 -76.21559 -12.0073 1.8312 100.38272 -20.03222 35.18949 -130.18775 -5.40625 -1.99682 -1.5976 67.6968 15.99824 -7.96503 -129.35151 -21.94388 0.29427 1.24105
-0.12667 -0.35616 -0.16511 15.87816 -31.59527 -11.72065 28.89894 4.41663 -7.7173 -0.56014 8.69257 -0.83079 -18.72949 -14.00994 -18.51635 50.41754 80.72946 -6.2393 -3.15821 8.40934 27.65296 -22.12531 105.31045 -76.20495 -12.22327 1.85889 101.71884 -19.86269 36.49513 -131.60757 -5.39356 -1.87251 -1.53545 68.62402 16.30139 -9.16102 -130.36794 -21.93905 0.23298 1.2019
-0.12745 -0.3606 -0.15732 16.35117 -31.67006 -11.01406 28.13566 4.50205 -7.45252 0.34925 8.58634 -0.83079 -17.33034 -14.74965 -18.85555 48.95394 80.63357 -6.50359 -2.80769 9.65839 26.47759 -22.56666 105.01279 -76.27441 -12.512 1.90525 103.58065 -19.53267 37.72149 -133.25984 -5.51195 -1.8504 -1.52076 69.51527 16.7364 -10.87114 -131.26603 -21.86163 0.20795 1.18205
-0.12819 -0.36525 -0.14941 16.72607 -31.74069 -10.33896 27.31708 4.64555 -7.16818 1.29071 8.51205 -0.83079 -15.85467 -15.46511 -19.23553 47.58831 80.57294 -6.86651 -2.41997 10.55067 25.10688 -22.81 104.74286 -76.37562 -12.82385 1.9588 105.65852 -19.15352 38.92543 -135.01777 -5.54744 -1.706 -1.44435 70.38766 17.2148 -12.75992 -132.11843 -21.75706 0.1927 1.16715
-0.12893 -0.36981 -0.14157 17.14021 -31.81319 -9.64055 26.53058 4.76414 -6.89643 2.21101 8.41834 -0.83079 -14.40762 -16.21142 -19.57274 46.1856 80.49672 -7.17488 -2.06329 11.57926 23.82496 -23.1413 104.46379 -76.46519 -13.11951 2.00972 107.67118 -18.81403 40.13816 -136.72906 -5.45004 -1.4085 -1.2926 71.25498 17.66679 -14.55205 -132.98712 -21.66344 0.16922 1.1477
-0.12975 -0.37437 -0.13367 17.57619 -31.88867 -8.98009 25.71459 4.87656 -6.60701 3.16384 8.34701 -0.83079 -12.98604 -16.87607 -20.00993 44.75514 80.41695 -7.52059 -1.64539 12.71739 22.53244 -23.47485 104.16985 -76.54328 -13.43818 2.05806 109.55689 -18.40609 41.36721 -138.45492 -6.04611 -1.95866 -1.56084 72.18773 18.14717 -16.41566 -133.87768 -21.57584 0.16116 1.13762
-0.13039 -0.37898 -0.12586 17.94308 -31.95537 -8.24701 24.94771 5.01552 -6.35001 4.05374 8.23455 -0.83079 -11.49192 -17.7064 -20.24465 43.40404 80.35368 -7.81418 -1.34693 13.53892 21.22066 -23.75882 103.91587 -76.65256 -13.71598 2.11326 111.74371 -18.12198 42.54944 -140.16262 -5.21128 -0.75577 -0.96023 72.97398 18.57891 -18.16797 -134.70933 -21.46932 0.12379 1.10951
-0.13057 -0.3837 -0.11825 18.15109 -32.00415 -7.31859 24.32061 5.21439 -6.19374 4.77298 8.01821 -0.83079 -9.83528 -18.97421 -19.96963 42.2525 80.32642 -7.92964 -1.38529 13.61607 19.89114 -23.9575 103.73707 -76.84328 -13.85934 2.18814 114.83141 -18.25741 43.6512 -141.85703 -0.15898 5.61648 2.2023 73.39366 18.86252 -19.59902 -135.40543 -21.31593 -0.00031 1.02838
-0.13056 -0.38847 -0.11073 18.29225 -32.04261 -6.31349 23.74653 5.43777 -6.06992 5.42459 7.75575 -0.83079 -8.10546 -20.414 -19.47969 41.1765 80.31493 -7.99144 -1.54553 13.37919 18.55262 -24.11318 103.60242 -77.06459 -13.9629 2.26952 118.1917 -18.50757 44.69774 -143.51583 6.27818 13.68329 6.20466 73.65968 19.09601 -20.90551 -136.04002 -21.14483 -0.15352 0.92939
-0.13061 -0.39323 -0.10318 18.45834 -32.08235 -5.33565 23.15412 5.64942 -5.92749 6.10022 7.50335 -0.83079 -6.39638 -21.79118 -19.05013 40.06215 80.29705 -8.08494 -1.6518 13.25903 17.22763 -24.28777 103.46591 -77.26875 -14.09606 2.34588 121.34686 -18.66181 45.74013 -145.14757 11.89177 20.7372 9.70493 73.97349 19.35475 -22.24947 -136.69295 -20.98236 -0.29122 0.83987
-0.13077 -0.39796 -0.09558 18.64171 -32.13764 -4.39221 22.5352 5.86572 -5.80081 6.80789 7.29947 -0.83079 -4.73562 -23.10113 -18.77851 38.96687 80.2771 -8.15134 -1.75156 13.23726 15.85575 -24.45918 103.25385 -77.48411 -14.18464 2.42992 124.85263 -18.99725 46.90488 -146.96537 18.32311 28.81413 13.71263 74.3797 19.60541 -23.682 -137.38753 -20.81565 -0.43845 0.74463
-0.13065 -0.40274 -0.08811 18.77733 -32.15656 -3.3569 21.9851 6.07725 -5.64909 7.42921 6.9814 -0.83079 -2.9601 -24.59326 -18.12738 37.85028 80.26473 -8.25967 -1.89328 12.9392 14.58206 -24.62813 103.20889 -77.68754 -14.3523 2.50102 127.69 -18.98556 47.80249 -148.38634 23.38535 35.16901 16.86599 74.5573 19.85937 -24.89627 -137.97802 -20.65497 -0.5726 0.65719
-0.12981 -0.40764 -0.08098 18.77364 -32.09117 -2.1004 21.61004 6.27067 -5.42301 7.85537 6.37452 -0.83079 -0.86466 -26.53677 -16.47146 36.63989 80.27023 -8.50106 -2.13107 11.97099 13.5836 -24.81457 103.61768 -77.81278 -14.78393 2.5212 128.61355 -17.96555 47.97041 -148.71342 24.27162 36.28365 17.4198 74.14104 20.14347 -25.55342 -138.32435 -20.50645 -0.66578 0.59389
-0.12869 -0.41257 -0.07399 18.72918 -31.98724 -0.75163 21.30309 6.45789 -5.17084 8.19213 5.65152 -0.83079 1.34075 -28.65875 -14.44239 35.4074 80.28288 -8.78544 -2.40571 10.73585 12.68586 -24.99836 104.19234 -77.93269 -15.2909 2.53065 128.85406 -16.59584 47.87241 -148.64292 23.74201 35.61882 17.0908 73.50102 20.43075 -25.99185 -138.56282 -20.36635 -0.74441 0.53935
-0.12769 -0.41745 -0.06696 18.7194 -31.89175 0.56442 20.96652 6.64709 -4.92811 8.55169 4.97128 -0.83079 3.48005 -30.70652 -12.59038 34.19617 80.29111 -9.04668 -2.65644 9.61242 11.74062 -25.17547 104.68893 -78.07862 -15.73817 2.55386 129.40733 -15.4016 47.89998 -148.75852 23.89778 35.81491 17.18888 72.96254 20.71056 -26.51915 -138.83258 -20.22838 -0.8283 0.48192
-0.12673 -0.42249 -0.05985 18.63878 -31.83324 1.84537 20.626 6.84104 -4.69406 8.98284 4.33088 -0.83079 5.68474 -32.73466 -10.70016 32.94293 80.30331 -9.3205 -2.93953 8.51234 10.79842 -25.38465 105.19862 -78.12262 -16.28653 2.53972 129.96095 -14.14435 47.90604 -148.85064 23.9265 35.85173 17.20804 72.41567 21.01406 -27.0852 -139.17571 -20.06483 -0.91896 0.41923
-0.12561 -0.4272 -0.05293 18.69723 -31.6899 3.21893 20.30935 7.0229 -4.43863 9.24622 3.58154 -0.83079 7.78507 -34.83947 -8.80266 31.76762 80.31064 -9.58005 -3.16503 7.3119 9.87871 -25.52649 105.71959 -78.3815 -16.64903 2.60083 130.34727 -12.93021 47.894 -148.89702 23.86357 35.7731 17.16973 71.83971 21.26964 -27.52206 -139.34036 -19.95653 -0.99161 0.36985
-0.12407 -0.43109 -0.04651 19.1483 -31.31098 4.83703 20.04033 7.1755 -4.10234 9.05421 2.55117 -0.83079 9.50729 -37.14736 -6.99384 30.84326 80.28761 -9.78103 -3.19856 5.84107 8.95689 -25.48917 106.23321 -79.19462 -16.42485 2.87095 130.44339 -11.94911 47.90136 -148.91992 23.90335 35.82317 17.19472 71.20037 21.3925 -27.64101 -139.04449 -20.00121 -1.01854 0.35491
-0.12239 -0.43464 -0.04028 19.7418 -30.84997 6.54239 19.79297 7.31518 -3.75067 8.69975 1.41704 -0.83079 11.12845 -39.51779 -5.19385 29.99364 80.263 -9.96813 -3.17611 4.29385 8.06211 -25.38434 106.75183 -80.22869 -16.0206 3.21684 130.39234 -11.01633 47.89913 -148.90961 23.89087 35.80747 17.18687 70.54785 21.46743 -27.64174 -138.57102 -20.10089 -1.02751 0.35324
-0.12079 -0.4383 -0.03396 20.2708 -30.43376 8.20025 19.53654 7.45935 -3.42422 8.42874 0.33628 -0.83079 12.84142 -41.83712 -3.37249 29.08744 80.24795 -10.16737 -3.19517 2.81803 7.18045 -25.30525 107.26661 -81.19161 -15.73622 3.52965 130.40435 -10.04379 47.89879 -148.91109 23.88939 35.80562 17.18599 69.92621 21.56401 -27.70572 -138.17645 -20.17378 -1.04438 0.34561
-0.1191 -0.44216 -0.02766 20.79551 -29.98494 9.89545 19.27943 7.61054 -3.01942 8.11248 -0.77492 -0.83079 14.37947 -44.26293 -1.58881 28.26935 80.19249 -10.34302 -3.15028 1.16612 6.19334 -25.24244 107.79388 -82.04267 -15.29757 3.83866 130.40927 -9.1394 47.89965 -148.91279 23.89391 35.81131 17.18884 69.1893 21.66027 -27.71814 -137.78945 -20.25428 -1.06229 0.33773
-0.11756 -0.44552 -0.02136 21.36582 -29.58459 11.53118 19.02774 7.74239 -2.77514 7.85491 -1.84567 -0.83079 16.23772 -46.47394 0.23821 27.29409 80.22493 -10.56451 -3.22163 -0.11899 5.43311 -25.13532 108.29408 -83.16438 -15.13185 4.17082 130.40233 -8.10266 47.8991 -148.91111 23.89094 35.80759 17.187 68.69513 21.747 -27.81731 -137.34126 -20.3322 -1.07346 0.33372
-0.1164 -0.44762 -0.01511 22.00822 -29.34236 12.9911 18.78725 7.83895 -2.97244 7.78453 -2.78036 -0.83079 19.1626 -48.12035 2.42478 25.79572 80.46037 -10.9094 -3.65406 -0.49352 5.27315 -24.87369 108.71835 -85.10867 -15.80376 4.57379 130.40618 -6.7494 47.89928 -148.9119 23.89194 35.80885 17.18766 68.85228 21.80908 -28.14604 -136.80611 -20.38618 -1.07438 0.33456
-0.11539 -0.44923 -0.00885 22.69543 -29.15119 14.3858 18.55065 7.91382 -3.33293 7.78246 -3.67014 -0.83079 22.38203 -49.53794 4.60815 24.15032 80.78893 -11.3007 -4.19997 -0.47088 5.34287 -24.57836 109.11445 -87.29476 -16.74891 4.99304 130.40519 -5.25472 47.89929 -148.91177 23.89201 35.80895 17.18774 69.2599 21.8653 -28.57382 -136.20758 -20.43569 -1.06833 0.33934
-0.11434 -0.45106 -0.00257 23.37468 -28.93405 15.80356 18.31117 7.98877 -3.62241 7.75862 -4.57899 -0.83079 25.36413 -51.03238 6.63625 22.61823 81.10474 -11.67636 -4.67683 -0.55115 5.32095 -24.33102 109.52245 -89.28391 -17.54217 5.38785 130.40488 -3.78288 47.89923 -148.91165 23.89169 35.80856 17.18757 69.56797 21.93052 -28.9838 -135.61501 -20.49019 -1.0631 0.34391
-0.11316 -0.4529 0.00359 24.0062 -28.72557 17.25244 18.07799 8.10427 -3.89809 7.6881 -5.49649 -0.83079 28.78446 -52.64936 9.32937 20.89078 81.30737 -12.03348 -5.22686 -0.96764 5.24989 -23.94551 109.93414 -91.64352 -18.4454 5.85607 130.40538 -2.47504 47.89927 -148.91178 23.89191 35.80885 17.18776 69.81331 21.96643 -29.27752 -135.11792 -20.53652 -1.06766 0.34205
-0.11229 -0.4546 0.01 24.74633 -28.51244 18.61956 17.83131 8.13067 -4.2414 7.7354 -6.38483 -0.83079 31.35716 -53.94885 10.63239 19.53646 81.75316 -12.43423 -5.65052 -0.5812 5.33081 -23.83797 110.33189 -93.29203 -19.18779 6.17574 130.40509 -0.80697 47.89926 -148.91172 23.89183 35.80876 17.18773 70.25128 22.06372 -29.83482 -134.40256 -20.59509 -1.04976 0.35463
-0.11215 -0.45604 0.01709 25.77159 -28.27193 19.77817 17.5546 7.9138 -4.73376 8.07202 -7.19506 -0.83079 31.57043 -54.48695 8.13631 19.23368 82.98113 -13.00208 -5.71307 1.86563 5.81397 -24.52934 110.69178 -92.86806 -19.41695 6.06817 130.40517 1.95498 47.89925 -148.91173 23.89181 35.80871 17.18768 71.14058 22.32244 -31.12697 -133.15763 -20.71306 -0.97685 0.40374
